<svg xmlns="http://www.w3.org/2000/svg" viewBox="0 9.699999809265137 168.78036499023438 34.25" data-asc="0.8"><g fill="#000000"><g fill="#000000" transform="translate(0, 0)"><path d="M7.50 41.70Q4 41.70 2.00 40.52Q0 39.35 0 37.20Q0 35 1.30 33.13Q2.60 31.25 4.67 29.88Q6.75 28.50 9.03 27.73Q11.30 26.95 13.25 26.95Q14.25 26.95 14.25 27.25Q14.25 27.70 13.20 27.70Q11.35 27.70 9.18 28.60Q7 29.50 5.30 31.10Q3.95 32.30 3.28 33.52Q2.60 34.75 2.60 35.80Q2.60 37.35 4.05 38.38Q5.50 39.40 8.40 39.40Q10.10 39.40 11.85 39.13Q13.60 38.85 15.03 38.50Q16.45 38.15 17.20 37.95Q19.05 37.35 20.93 36.50Q22.80 35.65 24.30 34.58Q25.80 33.50 26.50 32.40Q26.90 31.80 27.08 31.25Q27.25 30.70 27.25 30.20Q27.25 28.80 26.00 27.82Q24.75 26.85 22.80 26.05Q20.85 25.25 18.65 24.52Q16.45 23.80 14.50 23Q12.55 22.20 11.30 21.18Q10.05 20.15 10.05 18.70Q10.05 17.05 11.28 15.72Q12.50 14.40 14.43 13.38Q16.35 12.35 18.55 11.67Q20.75 11 22.75 10.65Q24.75 10.30 26.05 10.30Q31.55 10.30 31.55 13.05Q31.55 14.15 30.65 15.60Q30.25 16.35 29.50 17.02Q28.75 17.70 28.35 17.70Q28.05 17.70 28.05 17.35Q28.05 17.20 28.60 16.72Q29.15 16.25 29.70 15.55Q30.25 14.85 30.25 14.15Q30.25 13.10 29.08 12.55Q27.90 12 26.00 12Q25.10 12 23.40 12.27Q21.70 12.55 19.70 13.15Q17.70 13.75 15.85 14.75Q12.40 16.65 12.40 18Q12.40 19 14.35 19.90Q15.80 20.55 17.70 21.25Q19.60 21.95 21.55 22.75Q23.50 23.55 25.18 24.55Q26.85 25.55 27.88 26.77Q28.90 28 28.90 29.55Q28.90 31.65 26.60 33.85Q24.80 35.55 22.43 37Q20.05 38.45 17.43 39.50Q14.80 40.55 12.25 41.13Q9.70 41.70 7.50 41.70ZM33.35 40.50Q32.45 40.50 31.73 40.10Q31.00 39.70 30.65 38.60Q30.60 38.45 30.58 38.30Q30.55 38.15 30.55 37.95Q30.55 36.95 31.00 35.45Q31.45 33.95 32.10 32.55Q31.80 32.95 31.40 33.52Q31.00 34.10 30.25 35Q30.05 35.20 29.80 35.20Q29.45 35.20 29.45 34.80Q29.45 34.50 29.65 34.30Q30.95 32.65 31.98 31.35Q33 30.05 33.50 29.15Q33.50 29.05 33.80 28.52Q34.10 28 34.60 27.05Q34.20 27.10 33.93 27.13Q33.65 27.15 33.45 27.15Q33.10 27.15 32.85 26.85Q32.60 26.55 32.80 26.10Q33.05 25.40 33.90 25.30Q34.75 25.20 35.40 25.15Q35.45 25.05 35.60 25.05Q36.20 23.95 36.75 22.90Q37.30 21.85 37.68 21.15Q38.05 20.45 38.05 20.40Q39.05 18.80 39.35 18.27Q39.65 17.75 40.15 17.65Q40.70 17.60 41.33 17.70Q41.95 17.80 42.15 18.15Q42.30 18.35 42.30 18.65Q42.30 19.10 42.10 19.52Q41.90 19.95 41.70 20.20Q41.50 20.55 41.18 20.67Q40.85 20.80 40.60 21.30Q40.10 22.25 39.50 23.35Q38.90 24.45 38.25 25.45L38.85 25.40Q40.05 25.30 41.13 25.15Q42.20 25 43.60 25.05Q43.85 25.05 44.13 25.13Q44.40 25.20 44.40 25.35Q44.40 25.55 43.10 25.90Q42.60 26.10 40.93 26.32Q39.25 26.55 37.50 26.75Q37 27.70 36.60 28.32Q36.20 28.95 36.05 29.25Q34.95 31.55 34.08 33.42Q33.20 35.30 33.10 36.50Q33.05 36.70 33.05 36.88Q33.05 37.05 33.05 37.25Q33.05 39.25 34.35 39.25Q35.15 39.25 36.40 38.38Q37.65 37.50 38.95 36.23Q40.25 34.95 41.33 33.77Q42.40 32.60 42.80 32Q42.95 31.85 43.10 31.85Q43.30 31.85 43.43 32Q43.55 32.15 43.45 32.40Q43 33.25 41.93 34.52Q40.85 35.80 39.53 37.08Q38.20 38.35 36.95 39.25Q36.30 39.75 35.33 40.13Q34.35 40.50 33.35 40.50ZM56.15 40.50Q55.30 40.50 54.58 40.10Q53.85 39.70 53.50 38.60Q53.35 38.15 53.35 37.35Q53.35 36.25 53.65 34.90Q53.95 33.55 54.30 32.60Q54.05 32.70 53.38 33.48Q52.70 34.25 51.73 35.33Q50.75 36.40 49.58 37.48Q48.40 38.55 47.15 39.25Q45.90 39.95 44.70 39.95Q43.90 39.95 43 39.48Q42.10 39 41.55 38.25Q40.80 37.25 40.80 36.20Q40.80 34.85 41.73 33.40Q42.65 31.95 44.13 30.57Q45.60 29.20 47.28 28.07Q48.95 26.95 50.48 26.17Q52 25.40 52.95 25.15Q53.95 24.85 55.20 24.85Q55.90 24.85 56.65 25.02Q57.40 25.20 57.90 25.60Q58.30 25.80 58.55 26.15Q58.80 26.50 58.80 26.90Q58.80 27.30 58.45 27.15Q58.05 26.55 57.38 26.38Q56.70 26.20 56 26.20Q54 26.20 51.60 27.50Q49.20 28.80 47.30 30.55Q46.70 31.05 45.68 32.27Q44.65 33.50 43.80 34.95Q42.95 36.40 42.95 37.60Q42.95 38.25 43.30 38.75Q43.50 39.10 43.95 39.10Q44.65 39.10 45.83 38.35Q47 37.60 48.25 36.52Q49.50 35.45 50.53 34.45Q51.55 33.45 52 33Q52.25 32.75 52.98 31.98Q53.70 31.20 54.55 30.30Q55.40 29.40 56.08 28.75Q56.75 28.10 56.95 28.10Q57.20 28.10 57.78 28.23Q58.35 28.35 58.75 28.60Q59.15 28.85 58.90 29.25Q57.60 31.15 56.83 33.23Q56.05 35.30 55.90 36.50Q55.85 36.70 55.85 36.88Q55.85 37.05 55.85 37.25Q55.85 39.25 57.25 39.25Q58 39.25 59.25 38.35Q60.50 37.45 61.80 36.20Q63.10 34.95 64.18 33.77Q65.25 32.60 65.65 32Q65.80 31.85 65.95 31.85Q66.15 31.85 66.30 32.02Q66.45 32.20 66.30 32.45Q65.75 33.35 64.70 34.60Q63.65 35.85 62.35 37.10Q61.05 38.35 59.80 39.25Q59.15 39.75 58.15 40.13Q57.15 40.50 56.15 40.50ZM66.45 41.60Q65.50 41.60 65.15 40.80Q64.80 40 64.85 39.20Q65.10 37.75 65.58 36.23Q66.05 34.70 66.50 33.20Q66.60 32.85 66.75 32.30Q66.90 31.75 67.05 31.10Q66.70 31.60 66.28 32.20Q65.85 32.80 65.40 33.45Q65.20 33.70 64.95 33.70Q64.75 33.70 64.65 33.48Q64.55 33.25 64.75 33Q65.90 31.40 66.55 30.17Q67.20 28.95 67.45 28.20Q67.55 27.20 67.23 26.52Q66.90 25.85 66.05 25.85Q65.90 25.85 65.75 25.88Q65.60 25.90 65.40 25.95Q65.35 25.95 65.33 25.98Q65.30 26 65.25 26Q65.10 26 65.10 25.85Q65.10 25.70 65.40 25.30Q65.60 25.15 66.15 25.07Q66.70 25 67.20 24.95Q67.70 24.90 67.80 24.90Q68.50 24.90 69.10 25Q69.70 25.10 70.10 25.60Q70.35 25.85 70.50 26.25Q70.65 26.65 70.55 27.05Q70.55 27.35 70.28 28.07Q70.00 28.80 69.68 29.65Q69.35 30.50 69.08 31.17Q68.80 31.85 68.75 32.10Q68.25 33.50 67.75 35.20Q67.25 36.90 67.35 37.80Q69.70 34.70 72.15 31.60Q74.60 28.50 77.45 25.85Q78.60 24.70 79.80 23.72Q81.00 22.75 82.50 22.15Q83.15 21.90 83.70 21.90Q84.50 21.90 85.10 22.20Q85.70 22.50 85.90 22.90Q86.10 23.05 86.10 23.45Q86.10 24.05 85.70 24.05Q85.60 24.05 85.30 23.85Q85.05 23.60 84.55 23.60Q84.05 23.60 83.60 23.60Q82.55 23.60 80.98 24.65Q79.40 25.70 77.58 27.40Q75.75 29.10 73.95 31.10Q72.15 33.10 70.63 35.10Q69.10 37.10 68.13 38.70Q67.15 40.30 67.05 41.15Q67.05 41.40 66.80 41.50Q66.55 41.60 66.45 41.60ZM85.10 40.75Q82.85 40.75 81.20 39.70Q79.55 38.65 79.55 36.50Q79.55 35.35 80.25 33.70Q80.75 32.55 82.10 31.05Q83.45 29.55 85.25 28.13Q87.05 26.70 88.90 25.77Q90.75 24.85 92.25 24.85Q92.80 24.85 93.25 25Q94.10 25.30 94.43 25.95Q94.75 26.60 94.75 27.30Q94.75 27.95 94.55 28.55Q94.35 29.15 94.05 29.60Q93.15 30.95 91.48 32Q89.80 33.05 88.08 33.65Q86.35 34.25 85.25 34.35L85.15 34.35Q84.50 34.35 84.50 33.95Q84.50 33.70 84.90 33.70Q86.10 33.60 87.93 32.58Q89.75 31.55 91.15 30.45Q91.75 29.95 92.58 29.05Q93.40 28.15 93.40 27.30Q93.40 26.40 92.55 26.40Q92.10 26.40 91.63 26.60Q91.15 26.80 90.85 26.90Q89.40 27.60 87.65 29.07Q85.90 30.55 84.48 32.38Q83.05 34.20 82.50 36.05Q82.35 36.45 82.30 36.83Q82.25 37.20 82.25 37.55Q82.25 38.75 83.03 39.25Q83.80 39.75 84.90 39.75Q86.55 39.75 88.30 39.02Q90.05 38.30 91.70 37.15Q93.35 36 94.73 34.67Q96.10 33.35 97.05 32.10Q97.20 31.90 97.40 31.88Q97.60 31.85 97.65 31.95Q97.85 32 97.85 32.23Q97.85 32.45 97.75 32.65Q96.35 34.60 94.38 36.45Q92.40 38.30 90.03 39.52Q87.65 40.75 85.10 40.75ZM99.15 43.95Q97.00 43.95 96.08 43.17Q95.15 42.40 95.15 41.15Q95.15 40.15 95.65 38.90Q96.15 37.65 96.95 36.30Q98.70 33.30 100.93 30.02Q103.15 26.75 105.30 23.55Q106.45 21.80 107.73 19.97Q109.00 18.15 110.13 16.42Q111.25 14.70 111.90 13.30Q111.40 13.25 110.90 13.25Q110.40 13.25 109.85 13.25Q107.70 13.25 105.40 13.57Q103.10 13.90 101.13 14.60Q99.15 15.30 97.95 16.42Q96.75 17.55 96.75 19.15Q96.75 20.15 97.33 20.75Q97.90 21.35 98.63 21.70Q99.35 22.05 99.70 22.30Q100.10 22.55 100.10 22.70Q100.10 22.80 99.90 22.80Q99.50 22.80 98.48 22.27Q97.45 21.75 96.60 20.80Q95.75 19.85 95.70 18.60Q95.70 18.50 95.60 18.30Q95.50 18.10 95.50 17.95Q95.40 16.05 96.45 14.75Q97.50 13.45 99.33 12.63Q101.15 11.80 103.40 11.42Q105.65 11.05 107.90 11.05Q110.40 11.05 112.65 11.45Q112.70 11.25 112.73 11.10Q112.75 10.95 112.75 10.80Q112.75 10.55 112.65 10.35Q112.60 10.25 112.60 10.10Q112.60 9.70 113.05 9.70Q113.30 9.70 113.58 9.88Q113.85 10.05 114.00 10.50Q114.05 10.60 114.05 10.85Q114.05 11.25 113.90 11.70Q114.50 11.90 114.98 12.10Q115.45 12.30 115.90 12.50Q116.30 12.65 116.80 13.13Q117.30 13.60 117.30 13.90Q117.30 14.15 116.90 14.15Q116.70 14.15 116.40 14.10Q116.10 14.05 115.70 13.90Q115.20 13.75 114.65 13.63Q114.10 13.50 113.50 13.40Q112.70 15.55 111.10 18.47Q109.50 21.40 107.65 24.15Q106.00 26.65 104.33 29.25Q102.65 31.85 101.28 34.35Q99.90 36.85 99.10 39.10Q98.90 39.75 98.80 40.27Q98.70 40.80 98.70 41.20Q98.70 42.80 100.25 42.80Q101.60 42.80 103.80 41.75Q106.00 40.70 108.30 39.15Q112.45 36.25 116.18 32.60Q119.90 28.95 122.80 24.85Q122.75 24.25 122.73 23.57Q122.70 22.90 122.70 22.15Q122.70 20.95 122.78 19.70Q122.85 18.45 123.05 17.50Q123.10 17.10 123.53 16.42Q123.95 15.75 124.53 15.20Q125.10 14.65 125.55 14.65Q126.00 14.65 126.28 15.25Q126.55 15.85 126.55 17.35Q126.55 18.80 126.28 20.72Q126.00 22.65 125.10 24.50Q125.05 27.40 125.68 30.13Q126.30 32.85 127.48 35Q128.65 37.15 130.15 38.38Q131.65 39.60 133.35 39.55Q135.25 39.50 136.78 38.17Q138.30 36.85 139.43 34.63Q140.55 32.40 141.15 29.75Q141.75 27.10 141.75 24.45Q141.75 21.80 141.08 19.42Q140.40 17.05 138.95 15.50Q137.35 13.80 134.85 13.80Q134.65 13.80 134.43 13.80Q134.20 13.80 133.95 13.85Q132.70 14 131.75 14.75Q131.55 14.85 131.40 14.85Q130.80 14.85 130.80 14.35Q130.80 14.15 131 14Q133.75 12.10 136.40 12.10Q138.35 12.10 139.95 13.15Q142 14.45 142.93 17Q143.85 19.55 143.85 22.60Q143.85 25.75 142.95 29.07Q142.05 32.40 140.45 35.20Q138.85 38 136.65 39.73Q134.45 41.45 131.90 41.45Q129.95 41.45 128.18 40.38Q126.40 39.30 125.10 37.35Q123.80 35.40 123.13 32.85Q122.45 30.30 122.65 27.40Q121.05 29.40 118.83 31.67Q116.60 33.95 114.18 36.08Q111.75 38.20 109.55 39.80Q107.00 41.60 104.43 42.77Q101.85 43.95 99.15 43.95ZM158.60 40.50Q157.70 40.50 157 40.10Q156.30 39.70 155.95 38.60Q155.90 38.35 155.82 38.02Q155.75 37.70 155.75 37.35Q155.75 36.15 156.07 34.65Q156.40 33.15 156.80 32.15Q156.60 32.30 156.10 33.15Q155.60 34 154.85 35.13Q154.10 36.25 153.18 37.38Q152.25 38.50 151.18 39.23Q150.10 39.95 148.90 39.95Q148.10 39.95 146.97 39.50Q145.85 39.05 145.35 38.25Q144.85 37.45 144.85 36.25Q144.85 34.80 145.50 33.08Q146.15 31.35 147.15 29.85Q147.50 29.35 147.95 28.65Q148.40 27.95 148.85 27.42Q149.30 26.90 149.50 26.85Q150.10 26.65 150.90 26.65Q151.75 26.65 152.15 26.85Q152.50 27 152.50 27.20Q152.50 27.45 152.10 27.85Q151.55 28.35 150.60 29.35Q149.65 30.35 148.72 31.75Q147.80 33.15 147.20 34.85Q146.70 36.20 146.70 37.20Q146.70 38.95 148.10 38.95Q149.30 38.95 150.65 37.95Q152 36.95 153.28 35.50Q154.55 34.05 155.57 32.63Q156.60 31.20 157.15 30.35Q157.65 29.65 158.28 28.55Q158.90 27.45 159.50 26.40Q160.10 25.35 160.45 24.85Q160.80 24.85 161.53 24.98Q162.25 25.10 162.78 25.40Q163.30 25.70 163.05 26.15Q162.75 26.65 162.13 27.70Q161.50 28.75 160.88 29.82Q160.25 30.90 159.90 31.55Q158.70 33.85 158.35 36.50Q158.30 36.70 158.30 36.88Q158.30 37.05 158.30 37.25Q158.30 39.25 159.65 39.25Q160.40 39.25 161.65 38.35Q162.90 37.45 164.22 36.20Q165.55 34.95 166.63 33.77Q167.70 32.60 168.10 32Q168.20 31.85 168.40 31.85Q168.60 31.85 168.72 32Q168.85 32.15 168.70 32.40Q168.25 33.25 167.18 34.52Q166.10 35.80 164.80 37.08Q163.50 38.35 162.25 39.25Q161.60 39.75 160.60 40.13Q159.60 40.50 158.60 40.50Z"/></g></g></svg>